<svg viewBox="0 0 48 48" width="40" height="40" xmlns="http://www.w3.org/2000/svg">
  <path fill="#38BDF8" d="M24 9c-5.333 0-8.667 2.667-10 8 2-2.667 4.333-3.667 7-3 1.52.38 2.613 1.48 3.815 2.703C26.78 18.7 28.96 21 34 21c5.333 0 8.667-2.667 10-8-2 2.667-4.333 3.667-7 3-1.52-.38-2.613-1.48-3.815-2.703C29.22 11.3 27.04 9 22 9h2zm-14 12c-5.333 0-8.667 2.667-10 8 2-2.667 4.333-3.667 7-3 1.52.38 2.613 1.48 3.815 2.703C12.78 30.7 14.96 33 20 33c5.333 0 8.667-2.667 10-8-2 2.667-4.333 3.667-7 3-1.52-.38-2.613-1.48-3.815-2.703C17.22 23.3 15.04 21 10 21z"></path>
</svg>
